# Blender v2.81 (sub 16) OBJ File: 'rendering_competition.blend'
# www.blender.org
mtllib box.mtl
o Box_low
v 8.636293 0.398495 1.438817
v 8.623378 0.392977 1.481929
v 7.958680 0.453806 1.290582
v 7.971595 0.459325 1.247470
v 8.618028 0.405562 1.504514
v 7.953330 0.466391 1.313167
v 8.673217 0.420502 1.457517
v 8.662402 0.403541 1.448697
v 8.991219 0.733330 0.411303
v 9.002033 0.750291 0.420123
v 8.965110 0.728284 0.401424
v 8.649487 0.408538 1.495152
v 8.649487 0.865539 1.640433
v 8.618028 0.862562 1.649795
v 8.673217 0.877503 1.602798
v 8.983375 0.771990 0.351867
v 8.978025 0.748674 0.363039
v 8.313327 0.809503 0.171692
v 8.318677 0.832820 0.160520
v 8.300411 0.789114 0.210076
v 9.004134 0.764235 0.376262
v 9.004134 1.221236 0.521543
v 9.002033 1.207292 0.565405
v 8.983376 1.228991 0.497149
v 8.623378 0.885879 1.638623
v 7.958680 0.946708 1.447276
v 7.953330 0.923392 1.458448
v 8.636293 0.906268 1.600239
v 7.971595 0.967098 1.408892
v 8.662402 0.896443 1.605391
v 8.991219 1.226232 0.567998
v 8.965110 1.236057 0.562846
v 8.978025 1.241576 0.519734
v 8.313328 1.302405 0.328386
v 8.300411 1.296887 0.371498
v 8.318677 1.289820 0.305801
v 7.932571 0.931147 1.434053
v 7.932570 0.474146 1.288772
v 7.934672 0.945091 1.390192
v 7.934671 0.488090 1.244911
v 7.945487 0.962052 1.399012
v 8.274302 1.291841 0.361618
v 8.263488 1.274880 0.352799
v 8.287218 1.286844 0.315164
v 8.287218 0.829843 0.169882
v 8.263488 0.817879 0.207517
v 7.945486 0.469150 1.242317
v 8.274302 0.798939 0.204924
v 8.647061 0.396706 1.481623
v 8.996962 0.747642 0.377712
v 8.647061 0.883010 1.636220
v 8.996962 1.233945 0.532308
v 7.939743 0.947740 1.432604
v 8.289643 1.298676 0.328692
v 7.939743 0.461437 1.278007
v 8.289643 0.812372 0.174095
vt 0.387499 0.987501
vt 0.375000 0.992119
vt 0.375000 0.757881
vt 0.387499 0.762499
vt 0.367119 -0.000000
vt 0.362501 0.012499
vt 0.137499 0.012499
vt 0.132881 -0.000000
vt 0.387499 0.012499
vt 0.382881 -0.000000
vt 0.617119 -0.000000
vt 0.612501 0.012499
vt 0.382881 1.000000
vt 0.612501 0.987501
vt 0.617119 1.000000
vt 0.375000 0.012307
vt 0.375000 0.237693
vt 0.362501 0.237501
vt 0.387499 0.237501
vt 0.637499 0.012499
vt 0.632881 -0.000000
vt 0.867119 -0.000000
vt 0.862501 0.012499
vt 0.625000 0.992119
vt 0.612501 0.762499
vt 0.625000 0.757881
vt 0.625000 0.012307
vt 0.625000 0.237693
vt 0.612501 0.237501
vt 0.637499 0.237501
vt 0.367119 0.250000
vt 0.132881 0.250000
vt 0.137499 0.237501
vt 0.375000 0.257881
vt 0.387499 0.262499
vt 0.387499 0.487501
vt 0.375000 0.492119
vt 0.387307 0.250000
vt 0.612693 0.250000
vt 0.612501 0.262499
vt 0.625000 0.257881
vt 0.625000 0.492119
vt 0.612501 0.487501
vt 0.632881 0.250000
vt 0.862501 0.237501
vt 0.867119 0.250000
vt 0.125000 0.242119
vt 0.125000 0.007881
vt 0.375000 0.507881
vt 0.387499 0.512499
vt 0.387499 0.737501
vt 0.375000 0.742119
vt 0.387307 0.500000
vt 0.612693 0.500000
vt 0.612501 0.512499
vt 0.625000 0.507881
vt 0.625000 0.742119
vt 0.612501 0.737501
vt 0.875000 0.242119
vt 0.875000 0.007881
vt 0.387307 0.750000
vt 0.612693 0.750000
vt 0.375000 0.000000
vt 0.375000 1.000000
vt 0.625000 1.000000
vt 0.625000 0.000000
vt 0.375000 0.250000
vt 0.625000 0.250000
vt 0.375000 0.500000
vt 0.125000 0.250000
vt 0.875000 0.250000
vt 0.625000 0.500000
vt 0.375000 0.750000
vt 0.125000 0.000000
vt 0.875000 0.000000
vt 0.625000 0.750000
vn 0.0029 -0.9235 -0.3836
vn -0.0897 -0.9858 -0.1420
vn -0.0157 -0.9926 -0.1207
vn 0.0480 -0.9291 -0.3668
vn -0.1414 -0.8723 0.4681
vn -0.2059 -0.4594 0.8640
vn -0.3489 -0.4591 0.8170
vn -0.2756 -0.8600 0.4295
vn 0.9673 -0.1523 0.2027
vn 0.8383 -0.5438 0.0396
vn 0.8102 -0.5719 0.1282
vn 0.9377 -0.1827 0.2955
vn 0.2863 -0.9161 -0.2806
vn -0.0529 -0.9677 -0.2464
vn 0.2440 -0.9585 -0.1472
vn 0.2881 -0.4424 0.8493
vn 0.2881 -0.1292 0.9489
vn -0.1954 -0.1355 0.9713
vn 0.8513 -0.2080 0.4818
vn 0.9677 0.0102 0.2519
vn 0.8513 -0.1084 0.5134
vn 0.3489 0.0969 -0.9321
vn 0.2756 -0.4541 -0.8473
vn 0.1414 -0.4418 -0.8859
vn 0.2059 0.1239 -0.9707
vn 0.0157 -0.8801 -0.4746
vn -0.0029 -0.9755 -0.2200
vn 0.0897 -0.8868 -0.4533
vn 0.9980 -0.0608 0.0189
vn 0.9980 0.0387 0.0506
vn 0.9374 -0.0210 0.3476
vn 0.7622 0.0331 -0.6465
vn 0.3860 0.4216 -0.8206
vn 0.7622 0.3463 -0.5469
vn -0.1414 0.4418 0.8859
vn -0.2756 0.4541 0.8473
vn -0.3615 -0.1096 0.9259
vn -0.0897 0.8869 0.4533
vn -0.0023 0.9749 0.2226
vn 0.0451 0.9716 0.2322
vn -0.0157 0.8801 0.4746
vn 0.2863 0.9100 0.2999
vn 0.2440 0.8676 0.4333
vn -0.0503 0.9306 0.3625
vn 0.8383 0.4211 0.3464
vn 0.8102 0.3930 0.4349
vn 0.0157 0.9926 0.1207
vn 0.0897 0.9858 0.1420
vn 0.0023 0.9245 0.3812
vn 0.2756 0.8600 -0.4295
vn 0.2175 0.4711 -0.8548
vn 0.1414 0.8723 -0.4682
vn -0.7622 -0.0331 0.6465
vn -0.7622 -0.3463 0.5469
vn -0.9980 0.0608 -0.0189
vn -0.9408 0.3313 -0.0723
vn -0.9408 -0.2287 -0.2503
vn -0.9980 -0.0387 -0.0506
vn -0.8102 0.5720 -0.1282
vn -0.8383 0.5438 -0.0396
vn -0.8771 0.3951 -0.2730
vn -0.2441 0.9585 0.1472
vn -0.2863 0.9161 0.2806
vn -0.8513 0.2080 -0.4818
vn -0.8513 0.1084 -0.5134
vn -0.8771 -0.1649 -0.4511
vn -0.2881 0.4424 -0.8493
vn -0.2881 0.1292 -0.9489
vn -0.2440 -0.8676 -0.4333
vn -0.2863 -0.9100 -0.2999
vn -0.8102 -0.3929 -0.4349
vn -0.8383 -0.4211 -0.3464
vn 0.1961 -0.8049 0.5601
vn 0.1894 -0.9779 -0.0885
vn 0.7736 -0.5703 0.2764
vn 0.2750 -0.8920 -0.3587
vn 0.5938 -0.4060 -0.6947
vn 0.8857 -0.4578 -0.0773
vn 0.1894 0.8495 0.4924
vn 0.1961 0.3337 0.9221
vn 0.7736 0.3060 0.5550
vn 0.5938 0.7326 -0.3327
vn 0.2750 0.9354 0.2222
vn 0.8857 0.4184 0.2012
vn -0.8857 0.4578 0.0773
vn -0.5938 0.4060 0.6947
vn -0.2750 0.8920 0.3588
vn -0.1961 0.8049 -0.5601
vn -0.7735 0.5703 -0.2764
vn -0.1894 0.9779 0.0885
vn -0.2750 -0.9354 -0.2222
vn -0.5938 -0.7326 0.3327
vn -0.8857 -0.4184 -0.2012
vn -0.1961 -0.3337 -0.9221
vn -0.1894 -0.8495 -0.4924
vn -0.7736 -0.3060 -0.5550
usemtl Material
s 1
f 1/1/1 2/2/2 3/3/3 4/4/4
f 2/5/5 5/6/6 6/7/7 3/8/8
f 7/9/9 8/10/10 9/11/11 10/12/12
f 8/13/13 1/1/1 11/14/14 9/15/15
f 5/6/6 12/16/16 13/17/17 14/18/18
f 12/16/19 7/9/9 15/19/20 13/17/21
f 16/20/22 17/21/23 18/22/24 19/23/25
f 17/24/26 11/14/14 20/25/27 18/26/28
f 10/12/12 21/27/29 22/28/30 23/29/31
f 21/27/32 16/20/22 24/30/33 22/28/34
f 14/18/18 25/31/35 26/32/36 27/33/37
f 25/34/38 28/35/39 29/36/40 26/37/41
f 28/35/39 30/38/42 31/39/43 32/40/44
f 30/38/45 15/19/20 23/29/31 31/39/46
f 32/40/44 33/41/47 34/42/48 35/43/49
f 33/44/50 24/30/33 36/45/51 34/46/52
f 27/33/37 37/47/53 38/48/54 6/7/7
f 37/49/55 39/50/56 40/51/57 38/52/58
f 39/50/56 41/53/59 42/54/60 43/55/61
f 41/53/62 29/36/40 35/43/49 42/54/63
f 43/55/61 44/56/64 45/57/65 46/58/66
f 44/59/67 36/45/51 19/23/25 45/60/68
f 4/4/4 47/61/69 48/62/70 20/25/27
f 47/61/71 40/51/57 46/58/66 48/62/72
f 7/9/9 10/12/12 23/29/31 15/19/20
f 28/35/39 32/40/44 35/43/49 29/36/40
f 4/4/4 20/25/27 11/14/14 1/1/1
f 16/20/22 19/23/25 36/45/51 24/30/33
f 6/7/7 5/6/6 14/18/18 27/33/37
f 12/16/16 5/6/6 2/5/5 49/63/73
f 2/2/2 1/1/1 8/13/13 49/64/74
f 8/10/10 7/9/9 12/16/19 49/63/75
f 9/15/15 11/14/14 17/24/26 50/65/76
f 17/21/23 16/20/22 21/27/32 50/66/77
f 21/27/29 10/12/12 9/11/11 50/66/78
f 30/38/42 28/35/39 25/34/38 51/67/79
f 25/31/35 14/18/18 13/17/17 51/67/80
f 13/17/21 15/19/20 30/38/45 51/67/81
f 22/28/34 24/30/33 33/44/50 52/68/82
f 33/41/47 32/40/44 31/39/43 52/68/83
f 31/39/46 23/29/31 22/28/30 52/68/84
f 41/53/59 39/50/56 37/49/55 53/69/85
f 37/47/53 27/33/37 26/32/36 53/70/86
f 26/37/41 29/36/40 41/53/62 53/69/87
f 34/46/52 36/45/51 44/59/67 54/71/88
f 44/56/64 43/55/61 42/54/60 54/72/89
f 42/54/63 35/43/49 34/42/48 54/72/90
f 47/61/69 4/4/4 3/3/3 55/73/91
f 3/8/8 6/7/7 38/48/54 55/74/92
f 38/52/58 40/51/57 47/61/71 55/73/93
f 45/60/68 19/23/25 18/22/24 56/75/94
f 18/26/28 20/25/27 48/62/70 56/76/95
f 48/62/72 46/58/66 45/57/65 56/76/96
